<?xml version="1.0" standalone="no"?>
<!DOCTYPE svg PUBLIC "-//W3C//DTD SVG 20010904//EN"
 "http://www.w3.org/TR/2001/REC-SVG-20010904/DTD/svg10.dtd">
<svg version="1.0" xmlns="http://www.w3.org/2000/svg"
 width="1392.000000pt" height="1392.000000pt" viewBox="0 0 1392.000000 1392.000000"
 preserveAspectRatio="xMidYMid meet">
<metadata>
Created by potrace 1.14, written by Peter Selinger 2001-2017
</metadata>
<g transform="translate(0.000000,1392.000000) scale(0.100000,-0.100000)"
fill="#000000" stroke="none">
<path d="M7478 10778 c-80 -78 -98 -92 -195 -153 -107 -68 -306 -170 -428
-220 -49 -20 -99 -40 -110 -46 -33 -16 -287 -99 -303 -99 -13 0 -13 2 -1 18
47 56 120 267 112 322 -4 35 -48 70 -85 70 -22 0 -52 -16 -107 -57 -42 -32
-78 -60 -81 -63 -11 -12 -178 -120 -250 -162 -100 -59 -280 -146 -450 -220
-110 -48 -424 -161 -630 -228 -304 -97 -433 -143 -575 -202 -135 -56 -374
-175 -452 -224 l-51 -33 -28 42 c-170 252 -341 410 -525 484 -72 29 -81 31
-182 47 -71 12 -175 12 -231 2 -12 -2 -39 -7 -61 -11 -22 -4 -76 -24 -121 -46
-61 -29 -95 -53 -135 -97 -174 -187 -217 -461 -119 -754 64 -191 194 -388 331
-503 38 -32 44 -41 34 -52 -8 -7 -18 -13 -24 -13 -6 0 -11 -4 -11 -9 0 -12
-48 -23 -150 -36 -29 -4 -62 -9 -74 -11 -35 -7 -110 -16 -133 -17 -13 -1 -23
-3 -23 -6 0 -4 -10 -6 -22 -7 -42 -1 -138 -13 -146 -18 -5 -3 -30 -7 -58 -10
-48 -6 -89 -13 -89 -16 0 -1 -13 -3 -30 -5 -16 -2 -41 -6 -55 -9 -14 -2 -41
-7 -60 -10 -36 -6 -70 -12 -117 -21 -16 -3 -43 -8 -62 -11 -19 -2 -37 -6 -40
-8 -4 -3 -25 -7 -47 -10 -39 -6 -57 -9 -124 -23 -19 -4 -41 -6 -47 -5 -7 2
-13 -1 -13 -6 0 -5 -13 -9 -30 -10 -16 -1 -37 -3 -45 -4 -32 -3 -65 -120 -65
-229 0 -32 5 -61 10 -64 6 -4 7 -13 1 -23 -15 -29 -6 -241 13 -297 32 -91 78
-172 130 -228 41 -44 97 -85 126 -92 3 -1 12 -5 20 -8 8 -4 31 -8 50 -10 32
-2 35 -6 41 -40 3 -20 2 -37 -3 -37 -5 0 -6 -5 -2 -11 4 -7 8 -62 10 -123 4
-125 11 -283 20 -431 4 -55 7 -115 8 -132 0 -18 3 -33 6 -33 3 0 5 -24 6 -53
0 -28 4 -81 8 -117 4 -36 9 -78 11 -95 7 -66 15 -122 20 -150 12 -67 17 -102
21 -130 3 -16 9 -48 14 -70 10 -37 37 -161 44 -195 2 -8 6 -22 9 -30 3 -8 18
-55 33 -105 15 -49 30 -94 34 -100 4 -5 13 -26 20 -45 21 -57 62 -140 71 -146
5 -3 7 -8 5 -12 -2 -4 23 -47 56 -97 59 -90 59 -90 54 -150 -6 -64 -13 -168
-21 -330 -3 -55 -7 -143 -10 -195 -14 -261 -23 -572 -30 -957 -2 -122 -6 -227
-10 -233 -16 -25 -25 -969 -12 -1200 4 -63 9 -171 12 -240 3 -69 7 -177 10
-240 16 -381 23 -658 30 -1261 3 -263 7 -352 17 -368 7 -11 30 -27 51 -36 33
-13 557 -15 4706 -15 l4669 0 1 107 c1 58 4 109 6 112 2 4 6 71 10 151 4 80 9
172 12 205 11 120 10 2459 -1 2473 -5 8 -11 48 -12 90 -6 213 -15 485 -19 547
-2 39 -7 131 -10 205 -3 74 -8 160 -10 190 -5 93 -18 302 -20 355 -3 66 -14
227 -20 290 -2 28 -7 93 -10 145 -4 52 -8 108 -9 123 -3 22 7 39 45 80 27 29
66 77 86 107 21 30 44 61 51 68 6 8 10 17 7 22 -3 5 -2 10 3 12 8 3 82 133 82
143 0 3 7 22 16 43 20 47 83 230 88 257 2 11 11 45 20 75 8 30 18 66 20 80 3
14 7 36 10 50 3 14 7 36 10 50 9 51 19 106 23 125 2 11 6 36 8 55 3 19 7 51
10 70 6 43 19 158 29 260 3 35 13 163 22 275 6 83 15 294 19 455 2 74 4 141 4
148 1 7 5 11 10 8 12 -8 125 23 129 34 2 6 9 10 16 10 35 0 176 172 176 214 0
8 4 16 10 18 5 2 11 12 13 23 1 11 6 26 10 33 5 6 6 12 2 12 -3 0 0 10 7 23
18 34 19 424 1 496 -8 30 -20 62 -26 71 -13 16 -18 18 -70 24 -18 3 -32 5 -32
6 0 2 -16 5 -60 14 -66 13 -81 16 -105 22 -14 3 -42 7 -62 7 -21 1 -38 5 -38
9 0 4 -8 7 -17 8 -50 2 -73 5 -73 10 0 3 -12 6 -27 6 -16 1 -39 5 -53 8 -34 8
-89 17 -126 20 -17 1 -35 5 -40 8 -5 3 -31 8 -59 12 -27 3 -60 8 -71 10 -36 7
-97 17 -129 21 -64 8 -101 14 -130 19 -36 7 -109 18 -150 21 -16 2 -32 4 -35
4 -3 1 -20 10 -38 21 l-33 20 39 53 c141 193 252 430 282 602 12 72 16 188 7
230 -4 17 -9 45 -12 64 -3 19 -21 68 -40 109 -82 177 -227 293 -412 330 -73
14 -284 7 -358 -12 -214 -56 -396 -195 -584 -448 l-43 -58 -72 49 c-188 129
-505 301 -716 389 -98 40 -131 54 -140 57 -3 1 -18 7 -33 13 -16 7 -33 12 -38
12 -5 0 -17 4 -27 10 -45 25 -356 113 -485 136 l-37 6 20 32 c31 46 68 130 80
179 14 52 2 89 -36 113 -23 16 -33 16 -83 5 -71 -15 -62 -13 -216 -56 -148
-41 -385 -100 -436 -109 -19 -3 -43 -7 -54 -10 -11 -2 -47 -7 -80 -10 -33 -4
-77 -9 -98 -12 -41 -5 -41 -5 -7 46 69 102 116 227 135 359 15 100 4 144 -40
161 -49 19 -70 11 -127 -42z m-5305 -2960 c-14 -29 -44 -96 -64 -148 -43 -107
-38 -116 -42 83 -2 85 0 98 15 103 10 3 22 3 27 -1 5 -3 12 -1 16 5 3 5 22 10
41 10 l34 0 -27 -52z m9609 24 c2 -9 2 -28 -1 -41 -6 -22 -7 -21 -24 13 -21
45 -21 41 2 43 10 1 21 -6 23 -15z"/>
</g>
</svg>
